<svg xmlns="http://www.w3.org/2000/svg" viewBox="0 0 512 512">
  <defs>
    <style>
      .cls-3 {
        fill: #08e;
      }

      .cls-2 {
        fill: #fff;
      }
    </style>
  </defs>
  <path class="cls-2" d="M124,403s-17,2.924-17-15V121s-1.307-11,10-11h57s8.281,0.424,14,12,67,132,67,132l70-136s4.107-7.835,11-8,60,0,60,0,10-1.353,10,10V386s1.544,17-17,17H342s-17,.66-17-17V256l-36,75s-3.814,14-19,14H239s-12.752.111-18-11-37-76-37-76V387s1.308,16-18,16H124Z"/>
  <path class="cls-3" d="M353,155l-17-8s4.446-20,29-20,26.975,16.973,27,23-0.726,13.912-9,20-13.038,6.553-20,8-6,4-6,4h34v17H337V182s-0.653-7.195,11-13,24.062-9.705,24-17-3.153-7.5-7-8C356.934,143.752,353,155,353,155Z"/>
</svg>
